<svg width="24" height="24" viewBox="0 0 24 24" fill="none" xmlns="http://www.w3.org/2000/svg">
<path d="M11.9814 0.9375C11.9838 0.938804 11.9875 0.942071 11.9922 0.950195L21.5205 17.502C21.5252 17.51 21.5254 17.5149 21.5254 17.5176C21.5253 17.5216 21.5241 17.5279 21.5205 17.5342C21.5169 17.5405 21.5122 17.5448 21.5088 17.5469C21.5065 17.5482 21.5018 17.5498 21.4922 17.5498H2.43652C2.42691 17.5498 2.42217 17.5482 2.41992 17.5469C2.41656 17.5448 2.41279 17.5403 2.40918 17.5342C2.4055 17.5278 2.40339 17.5216 2.40332 17.5176C2.40329 17.5149 2.40356 17.51 2.4082 17.502L11.9365 0.950195C11.9413 0.941823 11.946 0.938767 11.9482 0.9375C11.9518 0.93566 11.9578 0.933594 11.9648 0.933594C11.972 0.933671 11.978 0.935602 11.9814 0.9375Z" stroke="white" stroke-width="0.9"/>
<path d="M23.0137 12.0166C23.0124 12.0189 23.0099 12.0227 23.002 12.0273L6.49805 21.584C6.49038 21.5884 6.48605 21.5889 6.4834 21.5889C6.47942 21.5888 6.47316 21.5876 6.4668 21.584C6.46041 21.5803 6.45616 21.5757 6.4541 21.5723C6.45276 21.57 6.4512 21.5659 6.45117 21.5566V2.44336C6.4512 2.43409 6.45276 2.43 6.4541 2.42773C6.45616 2.42431 6.46041 2.4197 6.4668 2.41602C6.47316 2.41237 6.47942 2.4112 6.4834 2.41113C6.48605 2.41113 6.49038 2.41164 6.49805 2.41602L23.002 11.9727C23.0099 11.9773 23.0124 11.9811 23.0137 11.9834C23.0156 11.9869 23.0176 11.9927 23.0176 12C23.0176 12.0073 23.0156 12.0131 23.0137 12.0166Z" stroke="white" stroke-width="0.9"/>
<path d="M11.9814 23.0625C11.9791 23.0612 11.9754 23.0579 11.9707 23.0498L2.44238 6.49805C2.43774 6.48998 2.43747 6.48509 2.4375 6.48242C2.43757 6.47845 2.43876 6.47214 2.44238 6.46582C2.44603 6.45951 2.45069 6.4552 2.4541 6.45312C2.45636 6.45177 2.46109 6.45019 2.4707 6.45019L21.5264 6.4502C21.536 6.4502 21.5407 6.45177 21.543 6.45312C21.5463 6.45517 21.5501 6.45969 21.5537 6.46582C21.5574 6.47219 21.5595 6.47842 21.5596 6.48242C21.5596 6.48509 21.5593 6.48998 21.5547 6.49805L12.0264 23.0498C12.0215 23.0582 12.0169 23.0612 12.0146 23.0625C12.0111 23.0643 12.0051 23.0664 11.998 23.0664C11.9909 23.0663 11.9849 23.0644 11.9814 23.0625Z" stroke="white" stroke-width="0.9"/>
<path d="M0.986329 11.9834C0.987599 11.9811 0.990068 11.9773 0.998048 11.9727L17.502 2.41602C17.5096 2.41164 17.514 2.41113 17.5166 2.41113C17.5206 2.4112 17.5268 2.41237 17.5332 2.41602C17.5396 2.4197 17.5438 2.42431 17.5459 2.42774C17.5472 2.43 17.5488 2.43409 17.5488 2.44336L17.5488 21.5566C17.5488 21.5659 17.5472 21.57 17.5459 21.5723C17.5438 21.5757 17.5396 21.5803 17.5332 21.584C17.5268 21.5876 17.5206 21.5888 17.5166 21.5889C17.514 21.5889 17.5096 21.5884 17.502 21.584L0.998048 12.0273C0.990065 12.0227 0.987598 12.0189 0.986329 12.0166C0.984392 12.0131 0.982423 12.0073 0.982423 12C0.982423 11.9927 0.984392 11.9869 0.986329 11.9834Z" stroke="white" stroke-width="0.9"/>
<path d="M12.0518 0.937502C12.0541 0.938806 12.0578 0.942073 12.0625 0.950197L21.5908 17.502C21.5955 17.51 21.5957 17.5149 21.5957 17.5176C21.5956 17.5216 21.5944 17.5279 21.5908 17.5342C21.5872 17.5405 21.5825 17.5448 21.5791 17.5469C21.5768 17.5482 21.5721 17.5498 21.5625 17.5498L2.50683 17.5498C2.49722 17.5498 2.49249 17.5482 2.49023 17.5469C2.48687 17.5448 2.4831 17.5403 2.47949 17.5342C2.47581 17.5278 2.4737 17.5216 2.47363 17.5176C2.4736 17.5149 2.47387 17.51 2.47851 17.502L12.0068 0.950197C12.0117 0.941825 12.0163 0.938769 12.0186 0.937502C12.0221 0.935662 12.0281 0.933595 12.0352 0.933595C12.0423 0.933672 12.0483 0.935603 12.0518 0.937502Z" stroke="white" stroke-width="0.9"/>
</svg>
